<svg xmlns="http://www.w3.org/2000/svg" viewBox="0 0 720 200" width="720" height="200">
  <rect width="720" height="200" fill="#0d1117" rx="8"/>
  <text x="50" y="24" font-size="14" font-weight="600" fill="#e6edf3">Git Clones</text>
  <text x="700" y="24" text-anchor="end" font-size="11" fill="#9ca3af">Last 26 days</text>
  <line x1="50" y1="40" x2="50" y2="150" stroke="#21262d"/>
  <line x1="50" y1="150" x2="700" y2="150" stroke="#21262d"/>
  <polyline points="50.0,148.7 76.0,149.1 102.0,149.1 128.0,150.0 154.0,149.6 180.0,137.9 206.0,99.5 232.0,40.0 258.0,52.1 284.0,144.0 310.0,84.4 336.0,113.8 362.0,149.1 388.0,149.1 414.0,103.0 440.0,55.5 466.0,134.9 492.0,140.5 518.0,149.6 544.0,148.3 570.0,125.4 596.0,72.4 622.0,96.5 648.0,111.6 674.0,125.4 700.0,146.1" fill="none" stroke="#4ade80" stroke-width="2.5" stroke-linecap="round" stroke-linejoin="round"/>
  <polyline points="50.0,148.7 76.0,149.1 102.0,149.1 128.0,150.0 154.0,149.6 180.0,148.7 206.0,129.3 232.0,111.2 258.0,111.6 284.0,146.5 310.0,127.6 336.0,132.3 362.0,149.1 388.0,149.1 414.0,130.6 440.0,115.5 466.0,144.8 492.0,145.7 518.0,149.6 544.0,148.3 570.0,138.4 596.0,117.6 622.0,122.4 648.0,131.0 674.0,139.2 700.0,147.0" fill="none" stroke="#60a5fa" stroke-width="2.5" stroke-linecap="round" stroke-linejoin="round" stroke-dasharray="6,3"/>
  <circle cx="60" cy="168" r="4" fill="#4ade80"/><text x="70" y="172" font-size="11" fill="#e6edf3">clones: 9</text>
  <circle cx="200" cy="168" r="4" fill="#60a5fa"/><text x="210" y="172" font-size="11" fill="#e6edf3">unique_cloners: 7</text>
  <text x="50.0" y="190" text-anchor="middle" font-size="11" fill="#9ca3af">06-30</text>
<text x="232.0" y="190" text-anchor="middle" font-size="11" fill="#9ca3af">07-07</text>
<text x="414.0" y="190" text-anchor="middle" font-size="11" fill="#9ca3af">07-14</text>
<text x="596.0" y="190" text-anchor="middle" font-size="11" fill="#9ca3af">07-21</text>
<text x="700.0" y="190" text-anchor="middle" font-size="11" fill="#9ca3af">07-25</text>

  <text x="45" y="44" text-anchor="end" font-size="11" fill="#9ca3af">255</text>
  <text x="45" y="150" text-anchor="end" font-size="11" fill="#9ca3af">0</text>
</svg>