<svg xmlns="http://www.w3.org/2000/svg" viewBox="0 0 720 200" width="720" height="200">
  <rect width="720" height="200" fill="#0d1117" rx="8"/>
  <text x="50" y="24" font-size="14" font-weight="600" fill="#e6edf3">Git Clones</text>
  <text x="700" y="24" text-anchor="end" font-size="11" fill="#9ca3af">Last 100 days</text>
  <line x1="50" y1="40" x2="50" y2="150" stroke="#21262d"/>
  <line x1="50" y1="150" x2="700" y2="150" stroke="#21262d"/>
  <polyline points="50.0,148.7 56.6,149.1 63.1,149.1 69.7,150.0 76.3,149.6 82.8,137.9 89.4,99.5 96.0,40.0 102.5,52.1 109.1,144.0 115.7,84.4 122.2,113.8 128.8,149.1 135.4,149.1 141.9,103.0 148.5,55.5 155.1,134.9 161.6,140.5 168.2,149.6 174.7,148.3 181.3,125.4 187.9,72.4 194.4,96.5 201.0,111.6 207.6,125.4 214.1,146.1 220.7,148.3 227.3,147.4 233.8,117.2 240.4,147.4 247.0,123.7 253.5,144.8 260.1,147.0 266.7,145.3 273.2,87.9 279.8,101.7 286.4,127.6 292.9,130.6 299.5,137.9 306.1,141.8 312.6,132.7 319.2,144.8 325.8,144.4 332.3,128.9 338.9,135.8 345.5,147.0 352.0,148.7 358.6,147.8 365.2,147.8 371.7,147.4 378.3,144.8 384.8,146.5 391.4,143.1 398.0,149.1 404.5,145.3 411.1,148.7 417.7,149.6 424.2,147.4 430.8,131.9 437.4,144.4 443.9,92.2 450.5,144.8 457.1,106.9 463.6,144.4 470.2,110.3 476.8,144.4 483.3,143.1 489.9,144.0 496.5,146.5 503.0,149.6 509.6,148.3 516.2,148.3 522.7,149.6 529.3,147.0 535.9,148.3 542.4,148.7 549.0,147.0 555.6,145.3 562.1,147.8 568.7,147.0 575.3,145.3 581.8,140.9 588.4,148.7 594.9,149.6 601.5,102.1 608.1,115.5 614.6,147.0 621.2,139.6 627.8,94.4 634.3,128.4 640.9,128.9 647.5,143.5 654.0,128.4 660.6,134.0 667.2,140.9 673.7,146.1 680.3,144.0 686.9,99.5 693.4,129.7 700.0,87.9" fill="none" stroke="#4ade80" stroke-width="2.5" stroke-linecap="round" stroke-linejoin="round"/>
  <polyline points="50.0,148.7 56.6,149.1 63.1,149.1 69.7,150.0 76.3,149.6 82.8,148.7 89.4,129.3 96.0,111.2 102.5,111.6 109.1,146.5 115.7,127.6 122.2,132.3 128.8,149.1 135.4,149.1 141.9,130.6 148.5,115.5 155.1,144.8 161.6,145.7 168.2,149.6 174.7,148.3 181.3,138.4 187.9,117.6 194.4,122.4 201.0,131.0 207.6,139.2 214.1,147.0 220.7,148.3 227.3,147.4 233.8,134.5 240.4,147.4 247.0,136.2 253.5,145.7 260.1,147.4 266.7,147.0 273.2,123.7 279.8,129.3 286.4,135.3 292.9,139.6 299.5,142.2 306.1,144.8 312.6,133.6 319.2,146.1 325.8,145.7 332.3,137.1 338.9,141.8 345.5,147.4 352.0,148.7 358.6,147.8 365.2,147.8 371.7,147.4 378.3,145.7 384.8,147.8 391.4,148.3 398.0,149.1 404.5,147.0 411.1,149.1 417.7,149.6 424.2,147.4 430.8,141.4 437.4,144.8 443.9,133.6 450.5,145.7 457.1,134.9 463.6,146.5 470.2,136.6 476.8,145.3 483.3,146.1 489.9,146.5 496.5,146.5 503.0,149.6 509.6,148.3 516.2,148.7 522.7,149.6 529.3,147.0 535.9,148.3 542.4,148.7 549.0,147.0 555.6,147.0 562.1,147.8 568.7,147.4 575.3,146.5 581.8,145.7 588.4,149.1 594.9,149.6 601.5,129.7 608.1,131.9 614.6,147.4 621.2,141.8 627.8,127.6 634.3,138.8 640.9,137.9 647.5,145.7 654.0,139.2 660.6,141.8 667.2,142.7 673.7,147.0 680.3,144.4 686.9,125.4 693.4,140.9 700.0,125.0" fill="none" stroke="#60a5fa" stroke-width="2.5" stroke-linecap="round" stroke-linejoin="round" stroke-dasharray="6,3"/>
  <circle cx="60" cy="168" r="4" fill="#4ade80"/><text x="70" y="172" font-size="11" fill="#e6edf3">clones: 144</text>
  <circle cx="200" cy="168" r="4" fill="#60a5fa"/><text x="210" y="172" font-size="11" fill="#e6edf3">unique_cloners: 58</text>
  <text x="50.0" y="190" text-anchor="middle" font-size="11" fill="#9ca3af">06-30</text>
<text x="96.0" y="190" text-anchor="middle" font-size="11" fill="#9ca3af">07-07</text>
<text x="141.9" y="190" text-anchor="middle" font-size="11" fill="#9ca3af">07-14</text>
<text x="187.9" y="190" text-anchor="middle" font-size="11" fill="#9ca3af">07-21</text>
<text x="233.8" y="190" text-anchor="middle" font-size="11" fill="#9ca3af">07-28</text>
<text x="279.8" y="190" text-anchor="middle" font-size="11" fill="#9ca3af">08-04</text>
<text x="325.8" y="190" text-anchor="middle" font-size="11" fill="#9ca3af">08-11</text>
<text x="371.7" y="190" text-anchor="middle" font-size="11" fill="#9ca3af">08-18</text>
<text x="417.7" y="190" text-anchor="middle" font-size="11" fill="#9ca3af">08-25</text>
<text x="463.6" y="190" text-anchor="middle" font-size="11" fill="#9ca3af">09-01</text>
<text x="509.6" y="190" text-anchor="middle" font-size="11" fill="#9ca3af">09-08</text>
<text x="555.6" y="190" text-anchor="middle" font-size="11" fill="#9ca3af">09-15</text>
<text x="601.5" y="190" text-anchor="middle" font-size="11" fill="#9ca3af">09-22</text>
<text x="647.5" y="190" text-anchor="middle" font-size="11" fill="#9ca3af">09-29</text>
<text x="693.4" y="190" text-anchor="middle" font-size="11" fill="#9ca3af">10-06</text>
<text x="700.0" y="190" text-anchor="middle" font-size="11" fill="#9ca3af">10-07</text>

  <text x="45" y="44" text-anchor="end" font-size="11" fill="#9ca3af">255</text>
  <text x="45" y="150" text-anchor="end" font-size="11" fill="#9ca3af">0</text>
</svg>