<svg xmlns="http://www.w3.org/2000/svg" viewBox="0 0 720 200" width="720" height="200">
  <rect width="720" height="200" fill="#0d1117" rx="8"/>
  <text x="50" y="24" font-size="14" font-weight="600" fill="#e6edf3">Git Clones</text>
  <text x="700" y="24" text-anchor="end" font-size="11" fill="#9ca3af">Last 14 days</text>
  <line x1="50" y1="40" x2="50" y2="150" stroke="#21262d"/>
  <line x1="50" y1="150" x2="700" y2="150" stroke="#21262d"/>
  <polyline points="50.0,148.7 100.0,149.1 150.0,149.1 200.0,150.0 250.0,149.6 300.0,137.9 350.0,99.5 400.0,40.0 450.0,52.1 500.0,144.0 550.0,84.4 600.0,113.8 650.0,149.1 700.0,149.1" fill="none" stroke="#4ade80" stroke-width="2.5" stroke-linecap="round" stroke-linejoin="round"/>
  <polyline points="50.0,148.7 100.0,149.1 150.0,149.1 200.0,150.0 250.0,149.6 300.0,148.7 350.0,129.3 400.0,111.2 450.0,111.6 500.0,146.5 550.0,127.6 600.0,132.3 650.0,149.1 700.0,149.1" fill="none" stroke="#60a5fa" stroke-width="2.5" stroke-linecap="round" stroke-linejoin="round" stroke-dasharray="6,3"/>
  <circle cx="60" cy="168" r="4" fill="#4ade80"/><text x="70" y="172" font-size="11" fill="#e6edf3">clones: 2</text>
  <circle cx="200" cy="168" r="4" fill="#60a5fa"/><text x="210" y="172" font-size="11" fill="#e6edf3">unique_cloners: 2</text>
  <text x="50.0" y="190" text-anchor="middle" font-size="11" fill="#9ca3af">06-30</text>
<text x="400.0" y="190" text-anchor="middle" font-size="11" fill="#9ca3af">07-07</text>
<text x="700.0" y="190" text-anchor="middle" font-size="11" fill="#9ca3af">07-13</text>

  <text x="45" y="44" text-anchor="end" font-size="11" fill="#9ca3af">255</text>
  <text x="45" y="150" text-anchor="end" font-size="11" fill="#9ca3af">0</text>
</svg>