<svg xmlns="http://www.w3.org/2000/svg" viewBox="0 0 720 200" width="720" height="200">
  <rect width="720" height="200" fill="#0d1117" rx="8"/>
  <text x="50" y="24" font-size="14" font-weight="600" fill="#e6edf3">Git Clones</text>
  <text x="700" y="24" text-anchor="end" font-size="11" fill="#9ca3af">Last 16 days</text>
  <line x1="50" y1="40" x2="50" y2="150" stroke="#21262d"/>
  <line x1="50" y1="150" x2="700" y2="150" stroke="#21262d"/>
  <polyline points="50.0,148.7 93.3,149.1 136.7,149.1 180.0,150.0 223.3,149.6 266.7,137.9 310.0,99.5 353.3,40.0 396.7,52.1 440.0,144.0 483.3,84.4 526.7,113.8 570.0,149.1 613.3,149.1 656.7,103.0 700.0,55.5" fill="none" stroke="#4ade80" stroke-width="2.5" stroke-linecap="round" stroke-linejoin="round"/>
  <polyline points="50.0,148.7 93.3,149.1 136.7,149.1 180.0,150.0 223.3,149.6 266.7,148.7 310.0,129.3 353.3,111.2 396.7,111.6 440.0,146.5 483.3,127.6 526.7,132.3 570.0,149.1 613.3,149.1 656.7,130.6 700.0,115.5" fill="none" stroke="#60a5fa" stroke-width="2.5" stroke-linecap="round" stroke-linejoin="round" stroke-dasharray="6,3"/>
  <circle cx="60" cy="168" r="4" fill="#4ade80"/><text x="70" y="172" font-size="11" fill="#e6edf3">clones: 219</text>
  <circle cx="200" cy="168" r="4" fill="#60a5fa"/><text x="210" y="172" font-size="11" fill="#e6edf3">unique_cloners: 80</text>
  <text x="50.0" y="190" text-anchor="middle" font-size="11" fill="#9ca3af">06-30</text>
<text x="353.3" y="190" text-anchor="middle" font-size="11" fill="#9ca3af">07-07</text>
<text x="656.7" y="190" text-anchor="middle" font-size="11" fill="#9ca3af">07-14</text>
<text x="700.0" y="190" text-anchor="middle" font-size="11" fill="#9ca3af">07-15</text>

  <text x="45" y="44" text-anchor="end" font-size="11" fill="#9ca3af">255</text>
  <text x="45" y="150" text-anchor="end" font-size="11" fill="#9ca3af">0</text>
</svg>