<svg xmlns="http://www.w3.org/2000/svg" viewBox="0 0 720 200" width="720" height="200">
  <rect width="720" height="200" fill="#0d1117" rx="8"/>
  <text x="50" y="24" font-size="14" font-weight="600" fill="#e6edf3">Git Clones</text>
  <text x="700" y="24" text-anchor="end" font-size="11" fill="#9ca3af">Last 27 days</text>
  <line x1="50" y1="40" x2="50" y2="150" stroke="#21262d"/>
  <line x1="50" y1="150" x2="700" y2="150" stroke="#21262d"/>
  <polyline points="50.0,148.7 75.0,149.1 100.0,149.1 125.0,150.0 150.0,149.6 175.0,137.9 200.0,99.5 225.0,40.0 250.0,52.1 275.0,144.0 300.0,84.4 325.0,113.8 350.0,149.1 375.0,149.1 400.0,103.0 425.0,55.5 450.0,134.9 475.0,140.5 500.0,149.6 525.0,148.3 550.0,125.4 575.0,72.4 600.0,96.5 625.0,111.6 650.0,125.4 675.0,146.1 700.0,148.3" fill="none" stroke="#4ade80" stroke-width="2.5" stroke-linecap="round" stroke-linejoin="round"/>
  <polyline points="50.0,148.7 75.0,149.1 100.0,149.1 125.0,150.0 150.0,149.6 175.0,148.7 200.0,129.3 225.0,111.2 250.0,111.6 275.0,146.5 300.0,127.6 325.0,132.3 350.0,149.1 375.0,149.1 400.0,130.6 425.0,115.5 450.0,144.8 475.0,145.7 500.0,149.6 525.0,148.3 550.0,138.4 575.0,117.6 600.0,122.4 625.0,131.0 650.0,139.2 675.0,147.0 700.0,148.3" fill="none" stroke="#60a5fa" stroke-width="2.5" stroke-linecap="round" stroke-linejoin="round" stroke-dasharray="6,3"/>
  <circle cx="60" cy="168" r="4" fill="#4ade80"/><text x="70" y="172" font-size="11" fill="#e6edf3">clones: 4</text>
  <circle cx="200" cy="168" r="4" fill="#60a5fa"/><text x="210" y="172" font-size="11" fill="#e6edf3">unique_cloners: 4</text>
  <text x="50.0" y="190" text-anchor="middle" font-size="11" fill="#9ca3af">06-30</text>
<text x="225.0" y="190" text-anchor="middle" font-size="11" fill="#9ca3af">07-07</text>
<text x="400.0" y="190" text-anchor="middle" font-size="11" fill="#9ca3af">07-14</text>
<text x="575.0" y="190" text-anchor="middle" font-size="11" fill="#9ca3af">07-21</text>
<text x="700.0" y="190" text-anchor="middle" font-size="11" fill="#9ca3af">07-26</text>

  <text x="45" y="44" text-anchor="end" font-size="11" fill="#9ca3af">255</text>
  <text x="45" y="150" text-anchor="end" font-size="11" fill="#9ca3af">0</text>
</svg>