<svg xmlns="http://www.w3.org/2000/svg" viewBox="0 0 720 200" width="720" height="200">
  <rect width="720" height="200" fill="#0d1117" rx="8"/>
  <text x="50" y="24" font-size="14" font-weight="600" fill="#e6edf3">Git Clones</text>
  <text x="700" y="24" text-anchor="end" font-size="11" fill="#9ca3af">Last 15 days</text>
  <line x1="50" y1="40" x2="50" y2="150" stroke="#21262d"/>
  <line x1="50" y1="150" x2="700" y2="150" stroke="#21262d"/>
  <polyline points="50.0,148.7 96.4,149.1 142.9,149.1 189.3,150.0 235.7,149.6 282.1,137.9 328.6,99.5 375.0,40.0 421.4,52.1 467.9,144.0 514.3,84.4 560.7,113.8 607.1,149.1 653.6,149.1 700.0,103.0" fill="none" stroke="#4ade80" stroke-width="2.5" stroke-linecap="round" stroke-linejoin="round"/>
  <polyline points="50.0,148.7 96.4,149.1 142.9,149.1 189.3,150.0 235.7,149.6 282.1,148.7 328.6,129.3 375.0,111.2 421.4,111.6 467.9,146.5 514.3,127.6 560.7,132.3 607.1,149.1 653.6,149.1 700.0,130.6" fill="none" stroke="#60a5fa" stroke-width="2.5" stroke-linecap="round" stroke-linejoin="round" stroke-dasharray="6,3"/>
  <circle cx="60" cy="168" r="4" fill="#4ade80"/><text x="70" y="172" font-size="11" fill="#e6edf3">clones: 109</text>
  <circle cx="200" cy="168" r="4" fill="#60a5fa"/><text x="210" y="172" font-size="11" fill="#e6edf3">unique_cloners: 45</text>
  <text x="50.0" y="190" text-anchor="middle" font-size="11" fill="#9ca3af">06-30</text>
<text x="375.0" y="190" text-anchor="middle" font-size="11" fill="#9ca3af">07-07</text>
<text x="700.0" y="190" text-anchor="middle" font-size="11" fill="#9ca3af">07-14</text>

  <text x="45" y="44" text-anchor="end" font-size="11" fill="#9ca3af">255</text>
  <text x="45" y="150" text-anchor="end" font-size="11" fill="#9ca3af">0</text>
</svg>