<svg xmlns="http://www.w3.org/2000/svg" viewBox="0 0 720 200" width="720" height="200">
  <rect width="720" height="200" fill="#0d1117" rx="8"/>
  <text x="50" y="24" font-size="14" font-weight="600" fill="#e6edf3">Git Clones</text>
  <text x="700" y="24" text-anchor="end" font-size="11" fill="#9ca3af">Last 57 days</text>
  <line x1="50" y1="40" x2="50" y2="150" stroke="#21262d"/>
  <line x1="50" y1="150" x2="700" y2="150" stroke="#21262d"/>
  <polyline points="50.0,148.7 61.6,149.1 73.2,149.1 84.8,150.0 96.4,149.6 108.0,137.9 119.6,99.5 131.2,40.0 142.9,52.1 154.5,144.0 166.1,84.4 177.7,113.8 189.3,149.1 200.9,149.1 212.5,103.0 224.1,55.5 235.7,134.9 247.3,140.5 258.9,149.6 270.5,148.3 282.1,125.4 293.8,72.4 305.4,96.5 317.0,111.6 328.6,125.4 340.2,146.1 351.8,148.3 363.4,147.4 375.0,117.2 386.6,147.4 398.2,123.7 409.8,144.8 421.4,147.0 433.0,145.3 444.6,87.9 456.2,101.7 467.9,127.6 479.5,130.6 491.1,137.9 502.7,141.8 514.3,132.7 525.9,144.8 537.5,144.4 549.1,128.9 560.7,135.8 572.3,147.0 583.9,148.7 595.5,147.8 607.1,147.8 618.8,147.4 630.4,144.8 642.0,146.5 653.6,143.1 665.2,149.1 676.8,145.3 688.4,148.7 700.0,149.6" fill="none" stroke="#4ade80" stroke-width="2.5" stroke-linecap="round" stroke-linejoin="round"/>
  <polyline points="50.0,148.7 61.6,149.1 73.2,149.1 84.8,150.0 96.4,149.6 108.0,148.7 119.6,129.3 131.2,111.2 142.9,111.6 154.5,146.5 166.1,127.6 177.7,132.3 189.3,149.1 200.9,149.1 212.5,130.6 224.1,115.5 235.7,144.8 247.3,145.7 258.9,149.6 270.5,148.3 282.1,138.4 293.8,117.6 305.4,122.4 317.0,131.0 328.6,139.2 340.2,147.0 351.8,148.3 363.4,147.4 375.0,134.5 386.6,147.4 398.2,136.2 409.8,145.7 421.4,147.4 433.0,147.0 444.6,123.7 456.2,129.3 467.9,135.3 479.5,139.6 491.1,142.2 502.7,144.8 514.3,133.6 525.9,146.1 537.5,145.7 549.1,137.1 560.7,141.8 572.3,147.4 583.9,148.7 595.5,147.8 607.1,147.8 618.8,147.4 630.4,145.7 642.0,147.8 653.6,148.3 665.2,149.1 676.8,147.0 688.4,149.1 700.0,149.6" fill="none" stroke="#60a5fa" stroke-width="2.5" stroke-linecap="round" stroke-linejoin="round" stroke-dasharray="6,3"/>
  <circle cx="60" cy="168" r="4" fill="#4ade80"/><text x="70" y="172" font-size="11" fill="#e6edf3">clones: 1</text>
  <circle cx="200" cy="168" r="4" fill="#60a5fa"/><text x="210" y="172" font-size="11" fill="#e6edf3">unique_cloners: 1</text>
  <text x="50.0" y="190" text-anchor="middle" font-size="11" fill="#9ca3af">06-30</text>
<text x="131.2" y="190" text-anchor="middle" font-size="11" fill="#9ca3af">07-07</text>
<text x="212.5" y="190" text-anchor="middle" font-size="11" fill="#9ca3af">07-14</text>
<text x="293.8" y="190" text-anchor="middle" font-size="11" fill="#9ca3af">07-21</text>
<text x="375.0" y="190" text-anchor="middle" font-size="11" fill="#9ca3af">07-28</text>
<text x="456.2" y="190" text-anchor="middle" font-size="11" fill="#9ca3af">08-04</text>
<text x="537.5" y="190" text-anchor="middle" font-size="11" fill="#9ca3af">08-11</text>
<text x="618.8" y="190" text-anchor="middle" font-size="11" fill="#9ca3af">08-18</text>
<text x="700.0" y="190" text-anchor="middle" font-size="11" fill="#9ca3af">08-25</text>

  <text x="45" y="44" text-anchor="end" font-size="11" fill="#9ca3af">255</text>
  <text x="45" y="150" text-anchor="end" font-size="11" fill="#9ca3af">0</text>
</svg>