<svg xmlns="http://www.w3.org/2000/svg" viewBox="0 0 720 200" width="720" height="200">
  <rect width="720" height="200" fill="#0d1117" rx="8"/>
  <text x="50" y="24" font-size="14" font-weight="600" fill="#e6edf3">Git Clones</text>
  <text x="700" y="24" text-anchor="end" font-size="11" fill="#9ca3af">Last 19 days</text>
  <line x1="50" y1="40" x2="50" y2="150" stroke="#21262d"/>
  <line x1="50" y1="150" x2="700" y2="150" stroke="#21262d"/>
  <polyline points="50.0,148.7 86.1,149.1 122.2,149.1 158.3,150.0 194.4,149.6 230.6,137.9 266.7,99.5 302.8,40.0 338.9,52.1 375.0,144.0 411.1,84.4 447.2,113.8 483.3,149.1 519.4,149.1 555.6,103.0 591.7,55.5 627.8,134.9 663.9,140.5 700.0,149.6" fill="none" stroke="#4ade80" stroke-width="2.5" stroke-linecap="round" stroke-linejoin="round"/>
  <polyline points="50.0,148.7 86.1,149.1 122.2,149.1 158.3,150.0 194.4,149.6 230.6,148.7 266.7,129.3 302.8,111.2 338.9,111.6 375.0,146.5 411.1,127.6 447.2,132.3 483.3,149.1 519.4,149.1 555.6,130.6 591.7,115.5 627.8,144.8 663.9,145.7 700.0,149.6" fill="none" stroke="#60a5fa" stroke-width="2.5" stroke-linecap="round" stroke-linejoin="round" stroke-dasharray="6,3"/>
  <circle cx="60" cy="168" r="4" fill="#4ade80"/><text x="70" y="172" font-size="11" fill="#e6edf3">clones: 1</text>
  <circle cx="200" cy="168" r="4" fill="#60a5fa"/><text x="210" y="172" font-size="11" fill="#e6edf3">unique_cloners: 1</text>
  <text x="50.0" y="190" text-anchor="middle" font-size="11" fill="#9ca3af">06-30</text>
<text x="302.8" y="190" text-anchor="middle" font-size="11" fill="#9ca3af">07-07</text>
<text x="555.6" y="190" text-anchor="middle" font-size="11" fill="#9ca3af">07-14</text>
<text x="700.0" y="190" text-anchor="middle" font-size="11" fill="#9ca3af">07-18</text>

  <text x="45" y="44" text-anchor="end" font-size="11" fill="#9ca3af">255</text>
  <text x="45" y="150" text-anchor="end" font-size="11" fill="#9ca3af">0</text>
</svg>