<svg xmlns="http://www.w3.org/2000/svg" viewBox="0 0 720 200" width="720" height="200">
  <rect width="720" height="200" fill="#0d1117" rx="8"/>
  <text x="50" y="24" font-size="14" font-weight="600" fill="#e6edf3">Git Clones</text>
  <text x="700" y="24" text-anchor="end" font-size="11" fill="#9ca3af">Last 25 days</text>
  <line x1="50" y1="40" x2="50" y2="150" stroke="#21262d"/>
  <line x1="50" y1="150" x2="700" y2="150" stroke="#21262d"/>
  <polyline points="50.0,148.7 77.1,149.1 104.2,149.1 131.2,150.0 158.3,149.6 185.4,137.9 212.5,99.5 239.6,40.0 266.7,52.1 293.8,144.0 320.8,84.4 347.9,113.8 375.0,149.1 402.1,149.1 429.2,103.0 456.2,55.5 483.3,134.9 510.4,140.5 537.5,149.6 564.6,148.3 591.7,125.4 618.8,72.4 645.8,96.5 672.9,111.6 700.0,125.4" fill="none" stroke="#4ade80" stroke-width="2.5" stroke-linecap="round" stroke-linejoin="round"/>
  <polyline points="50.0,148.7 77.1,149.1 104.2,149.1 131.2,150.0 158.3,149.6 185.4,148.7 212.5,129.3 239.6,111.2 266.7,111.6 293.8,146.5 320.8,127.6 347.9,132.3 375.0,149.1 402.1,149.1 429.2,130.6 456.2,115.5 483.3,144.8 510.4,145.7 537.5,149.6 564.6,148.3 591.7,138.4 618.8,117.6 645.8,122.4 672.9,131.0 700.0,139.2" fill="none" stroke="#60a5fa" stroke-width="2.5" stroke-linecap="round" stroke-linejoin="round" stroke-dasharray="6,3"/>
  <circle cx="60" cy="168" r="4" fill="#4ade80"/><text x="70" y="172" font-size="11" fill="#e6edf3">clones: 57</text>
  <circle cx="200" cy="168" r="4" fill="#60a5fa"/><text x="210" y="172" font-size="11" fill="#e6edf3">unique_cloners: 25</text>
  <text x="50.0" y="190" text-anchor="middle" font-size="11" fill="#9ca3af">06-30</text>
<text x="239.6" y="190" text-anchor="middle" font-size="11" fill="#9ca3af">07-07</text>
<text x="429.2" y="190" text-anchor="middle" font-size="11" fill="#9ca3af">07-14</text>
<text x="618.8" y="190" text-anchor="middle" font-size="11" fill="#9ca3af">07-21</text>
<text x="700.0" y="190" text-anchor="middle" font-size="11" fill="#9ca3af">07-24</text>

  <text x="45" y="44" text-anchor="end" font-size="11" fill="#9ca3af">255</text>
  <text x="45" y="150" text-anchor="end" font-size="11" fill="#9ca3af">0</text>
</svg>