<svg xmlns="http://www.w3.org/2000/svg" viewBox="0 0 720 200" width="720" height="200">
  <rect width="720" height="200" fill="#0d1117" rx="8"/>
  <text x="50" y="24" font-size="14" font-weight="600" fill="#e6edf3">Page Views</text>
  <text x="700" y="24" text-anchor="end" font-size="11" fill="#9ca3af">Last 15 days</text>
  <line x1="50" y1="40" x2="50" y2="150" stroke="#21262d"/>
  <line x1="50" y1="150" x2="700" y2="150" stroke="#21262d"/>
  <polyline points="50.0,147.8 96.4,148.3 142.9,147.7 189.3,147.6 235.7,149.7 282.1,149.1 328.6,147.8 375.0,146.1 421.4,144.5 467.9,147.4 514.3,40.0 560.7,144.9 607.1,148.7 653.6,148.4 700.0,147.0" fill="none" stroke="#4ade80" stroke-width="2.5" stroke-linecap="round" stroke-linejoin="round"/>
  <polyline points="50.0,149.4 96.4,149.2 142.9,149.2 189.3,149.6 235.7,149.9 282.1,149.7 328.6,149.2 375.0,149.4 421.4,149.2 467.9,149.5 514.3,45.4 560.7,149.7 607.1,149.6 653.6,149.4 700.0,149.5" fill="none" stroke="#60a5fa" stroke-width="2.5" stroke-linecap="round" stroke-linejoin="round" stroke-dasharray="6,3"/>
  <circle cx="60" cy="168" r="4" fill="#4ade80"/><text x="70" y="172" font-size="11" fill="#e6edf3">views: 83</text>
  <circle cx="200" cy="168" r="4" fill="#60a5fa"/><text x="210" y="172" font-size="11" fill="#e6edf3">unique_visitors: 15</text>
  <text x="50.0" y="190" text-anchor="middle" font-size="11" fill="#9ca3af">06-30</text>
<text x="375.0" y="190" text-anchor="middle" font-size="11" fill="#9ca3af">07-07</text>
<text x="700.0" y="190" text-anchor="middle" font-size="11" fill="#9ca3af">07-14</text>

  <text x="45" y="44" text-anchor="end" font-size="11" fill="#9ca3af">3057</text>
  <text x="45" y="150" text-anchor="end" font-size="11" fill="#9ca3af">0</text>
</svg>