<svg xmlns="http://www.w3.org/2000/svg" viewBox="0 0 720 200" width="720" height="200">
  <rect width="720" height="200" fill="#0d1117" rx="8"/>
  <text x="50" y="24" font-size="14" font-weight="600" fill="#e6edf3">Page Views</text>
  <text x="700" y="24" text-anchor="end" font-size="11" fill="#9ca3af">Last 26 days</text>
  <line x1="50" y1="40" x2="50" y2="150" stroke="#21262d"/>
  <line x1="50" y1="150" x2="700" y2="150" stroke="#21262d"/>
  <polyline points="50.0,147.8 76.0,148.3 102.0,147.7 128.0,147.6 154.0,149.7 180.0,149.1 206.0,147.8 232.0,146.1 258.0,144.5 284.0,147.4 310.0,40.0 336.0,144.9 362.0,148.7 388.0,148.4 414.0,147.0 440.0,145.2 466.0,147.0 492.0,147.9 518.0,149.1 544.0,149.5 570.0,147.8 596.0,146.2 622.0,146.1 648.0,146.9 674.0,148.6 700.0,148.7" fill="none" stroke="#4ade80" stroke-width="2.5" stroke-linecap="round" stroke-linejoin="round"/>
  <polyline points="50.0,149.4 76.0,149.2 102.0,149.2 128.0,149.6 154.0,149.9 180.0,149.7 206.0,149.2 232.0,149.4 258.0,149.2 284.0,149.5 310.0,45.4 336.0,149.7 362.0,149.6 388.0,149.4 414.0,149.5 440.0,149.3 466.0,149.4 492.0,149.6 518.0,149.8 544.0,149.7 570.0,149.5 596.0,149.4 622.0,149.5 648.0,149.5 674.0,149.4 700.0,149.5" fill="none" stroke="#60a5fa" stroke-width="2.5" stroke-linecap="round" stroke-linejoin="round" stroke-dasharray="6,3"/>
  <circle cx="60" cy="168" r="4" fill="#4ade80"/><text x="70" y="172" font-size="11" fill="#e6edf3">views: 37</text>
  <circle cx="200" cy="168" r="4" fill="#60a5fa"/><text x="210" y="172" font-size="11" fill="#e6edf3">unique_visitors: 14</text>
  <text x="50.0" y="190" text-anchor="middle" font-size="11" fill="#9ca3af">06-30</text>
<text x="232.0" y="190" text-anchor="middle" font-size="11" fill="#9ca3af">07-07</text>
<text x="414.0" y="190" text-anchor="middle" font-size="11" fill="#9ca3af">07-14</text>
<text x="596.0" y="190" text-anchor="middle" font-size="11" fill="#9ca3af">07-21</text>
<text x="700.0" y="190" text-anchor="middle" font-size="11" fill="#9ca3af">07-25</text>

  <text x="45" y="44" text-anchor="end" font-size="11" fill="#9ca3af">3057</text>
  <text x="45" y="150" text-anchor="end" font-size="11" fill="#9ca3af">0</text>
</svg>