<svg xmlns="http://www.w3.org/2000/svg" viewBox="0 0 720 200" width="720" height="200">
  <rect width="720" height="200" fill="#0d1117" rx="8"/>
  <text x="50" y="24" font-size="14" font-weight="600" fill="#e6edf3">Page Views</text>
  <text x="700" y="24" text-anchor="end" font-size="11" fill="#9ca3af">Last 19 days</text>
  <line x1="50" y1="40" x2="50" y2="150" stroke="#21262d"/>
  <line x1="50" y1="150" x2="700" y2="150" stroke="#21262d"/>
  <polyline points="50.0,147.8 86.1,148.3 122.2,147.7 158.3,147.6 194.4,149.7 230.6,149.1 266.7,147.8 302.8,146.1 338.9,144.5 375.0,147.4 411.1,40.0 447.2,144.9 483.3,148.7 519.4,148.4 555.6,147.0 591.7,145.2 627.8,147.0 663.9,147.9 700.0,149.1" fill="none" stroke="#4ade80" stroke-width="2.5" stroke-linecap="round" stroke-linejoin="round"/>
  <polyline points="50.0,149.4 86.1,149.2 122.2,149.2 158.3,149.6 194.4,149.9 230.6,149.7 266.7,149.2 302.8,149.4 338.9,149.2 375.0,149.5 411.1,45.4 447.2,149.7 483.3,149.6 519.4,149.4 555.6,149.5 591.7,149.3 627.8,149.4 663.9,149.6 700.0,149.8" fill="none" stroke="#60a5fa" stroke-width="2.5" stroke-linecap="round" stroke-linejoin="round" stroke-dasharray="6,3"/>
  <circle cx="60" cy="168" r="4" fill="#4ade80"/><text x="70" y="172" font-size="11" fill="#e6edf3">views: 25</text>
  <circle cx="200" cy="168" r="4" fill="#60a5fa"/><text x="210" y="172" font-size="11" fill="#e6edf3">unique_visitors: 6</text>
  <text x="50.0" y="190" text-anchor="middle" font-size="11" fill="#9ca3af">06-30</text>
<text x="302.8" y="190" text-anchor="middle" font-size="11" fill="#9ca3af">07-07</text>
<text x="555.6" y="190" text-anchor="middle" font-size="11" fill="#9ca3af">07-14</text>
<text x="700.0" y="190" text-anchor="middle" font-size="11" fill="#9ca3af">07-18</text>

  <text x="45" y="44" text-anchor="end" font-size="11" fill="#9ca3af">3057</text>
  <text x="45" y="150" text-anchor="end" font-size="11" fill="#9ca3af">0</text>
</svg>