<svg xmlns="http://www.w3.org/2000/svg" viewBox="0 0 720 200" width="720" height="200">
  <rect width="720" height="200" fill="#0d1117" rx="8"/>
  <text x="50" y="24" font-size="14" font-weight="600" fill="#e6edf3">Page Views</text>
  <text x="700" y="24" text-anchor="end" font-size="11" fill="#9ca3af">Last 39 days</text>
  <line x1="50" y1="40" x2="50" y2="150" stroke="#21262d"/>
  <line x1="50" y1="150" x2="700" y2="150" stroke="#21262d"/>
  <polyline points="50.0,147.8 67.1,148.3 84.2,147.7 101.3,147.6 118.4,149.7 135.5,149.1 152.6,147.8 169.7,146.1 186.8,144.5 203.9,147.4 221.1,40.0 238.2,144.9 255.3,148.7 272.4,148.4 289.5,147.0 306.6,145.2 323.7,147.0 340.8,147.9 357.9,149.1 375.0,149.5 392.1,147.8 409.2,146.2 426.3,146.1 443.4,146.9 460.5,148.6 477.6,148.7 494.7,147.7 511.8,148.3 528.9,142.9 546.1,147.2 563.2,148.2 580.3,148.3 597.4,148.9 614.5,149.8 631.6,144.9 648.7,146.5 665.8,147.6 682.9,144.0 700.0,147.5" fill="none" stroke="#4ade80" stroke-width="2.5" stroke-linecap="round" stroke-linejoin="round"/>
  <polyline points="50.0,149.4 67.1,149.2 84.2,149.2 101.3,149.6 118.4,149.9 135.5,149.7 152.6,149.2 169.7,149.4 186.8,149.2 203.9,149.5 221.1,45.4 238.2,149.7 255.3,149.6 272.4,149.4 289.5,149.5 306.6,149.3 323.7,149.4 340.8,149.6 357.9,149.8 375.0,149.7 392.1,149.5 409.2,149.4 426.3,149.5 443.4,149.5 460.5,149.4 477.6,149.5 494.7,149.7 511.8,149.4 528.9,149.4 546.1,149.3 563.2,149.5 580.3,149.5 597.4,149.8 614.5,149.8 631.6,149.1 648.7,149.1 665.8,149.5 682.9,149.3 700.0,149.3" fill="none" stroke="#60a5fa" stroke-width="2.5" stroke-linecap="round" stroke-linejoin="round" stroke-dasharray="6,3"/>
  <circle cx="60" cy="168" r="4" fill="#4ade80"/><text x="70" y="172" font-size="11" fill="#e6edf3">views: 70</text>
  <circle cx="200" cy="168" r="4" fill="#60a5fa"/><text x="210" y="172" font-size="11" fill="#e6edf3">unique_visitors: 19</text>
  <text x="50.0" y="190" text-anchor="middle" font-size="11" fill="#9ca3af">06-30</text>
<text x="169.7" y="190" text-anchor="middle" font-size="11" fill="#9ca3af">07-07</text>
<text x="289.5" y="190" text-anchor="middle" font-size="11" fill="#9ca3af">07-14</text>
<text x="409.2" y="190" text-anchor="middle" font-size="11" fill="#9ca3af">07-21</text>
<text x="528.9" y="190" text-anchor="middle" font-size="11" fill="#9ca3af">07-28</text>
<text x="648.7" y="190" text-anchor="middle" font-size="11" fill="#9ca3af">08-04</text>
<text x="700.0" y="190" text-anchor="middle" font-size="11" fill="#9ca3af">08-07</text>

  <text x="45" y="44" text-anchor="end" font-size="11" fill="#9ca3af">3057</text>
  <text x="45" y="150" text-anchor="end" font-size="11" fill="#9ca3af">0</text>
</svg>